<?xml version="1.0" encoding="UTF-8"?>
<svg id="_图层_1" data-name="图层 1" xmlns="http://www.w3.org/2000/svg" viewBox="0 0 1103.73 766.9">
  <defs>
    <style>
      .cls-1 {
        fill: #ff6d00;
      }

      .cls-2 {
        fill: #05f;
      }
    </style>
  </defs>
  <path class="cls-1" d="M1103.73,319.67c-13.18-1.18-25.82-.34-38.38-.37-77.26-.19-154.52.09-231.78.13-92.43.05-184.86.03-277.29.01-4.9,0-9.48.2-13.73,3.52-19.57,15.29-39.29,30.39-59.03,45.47-23.8,18.17-47.89,35.99-71.43,54.49-9.72,7.64-20.71,13.82-28.77,25.61h242.68c-9.31,63.91-79.97,162.95-194.36,182.78-101.94,17.67-212.87-14.73-274.13-132.15-47.27-90.6-36.49-215.39,49.07-297.39,39.71-38.06,86.41-62.6,141.44-68.11,81.63-8.18,154.72,11.29,213.47,72.49,35.4-25.5,69.57-50.12,104.19-75.05C628.46,63.66,474.01-22.72,312.61,5.49,149.95,33.91-6.83,195.05.28,384.16c-7.85,182.7,152.04,369.2,352.56,381.79,84.17,5.29,162.76-11.27,233.79-57.33,94.4-61.22,152.48-147.43,173.3-260.25h343.81v-128.7Z"/>
  <path class="cls-2" d="M1103.73.18l-475.7.33c4.94,7.58,9.84,10.53,14.18,14.1,14.51,11.95,30.62,21.95,44.03,35.19,21.58,21.31,40.47,44.95,56.56,70.63,5.93,9.46,13.07,12.64,23.96,12.45,32.88-.58,65.77-.21,98.66-.21,77.79,0,155.57.01,233.36-.03,1.64,0,3.32.1,4.96.06V.18Z"/>
  <path class="cls-2" d="M848.07,636.11c-26.82.15-53.64.43-80.46.96-4.9.1-9.59-.1-12.9,4.83-7.95,11.85-16.6,23.15-26.14,33.84-27.06,30.35-55.34,59.29-89.18,82.29-2.58,1.75-6.14,3.07-6.5,7.56h215.17v-129.48Z"/>
</svg>